<svg xmlns="http://www.w3.org/2000/svg" viewBox="0 0 263 156"><path d="M12.4 26c3.3 23 4.8 47 5 74h-6.2c-.6 9-1.5 18-3 26H248c-.4-8-.3-17 0-26h-5.4c-.4-19 1-43 4.8-74h7.4c1-9 2.3-18 3.6-26H0c2.3 8 4.3 17 6 26h6.4zm236 104H7c-1.7 8-4 17-7 26h258.4c-4.6-1-8.8-12-10-26z"/><linearGradient id="a" x1="126.4" x2="126.4" y1="103.6" y2="120.2" gradientUnits="userSpaceOnUse"><stop offset="0" stop-color="#A1D2FF"/><stop offset="1" stop-color="#7AB7F0"/></linearGradient><path fill="url(#a)" d="M240.8 103.6c-.2 5.7-.2 11.3 0 16.6H12c.8-5 1.4-10.6 1.8-16.6h227"/><path fill="#FFF" d="M240.3 25.2C236.7 55 235 79 235.5 98.7h-215c-.3-28-2-52.2-5-73.5h224.8"/><linearGradient id="b" x1="4.5" x2="250.6" y1="11.9" y2="11.9" gradientUnits="userSpaceOnUse"><stop offset="0" stop-color="#A1D2FF"/><stop offset="1" stop-color="#7AB7F0"/></linearGradient><path fill="url(#b)" d="M250.6 3.6l-2.2 16.6H8C7 14.5 6 9 4.6 3.6h246"/><linearGradient id="c" x1="125.5" x2="125.5" y1="133.6" y2="150.2" gradientUnits="userSpaceOnUse"><stop offset="0" stop-color="#A1D2FF"/><stop offset="1" stop-color="#7AB7F0"/></linearGradient><path fill="url(#c)" d="M242 133.6c.5 4.5 1.8 11 4 16.6H5c1.7-5.7 3-11.2 4.3-16.6h233"/><path fill="#555" d="M164 14.4H18c-1.3 0-2.4-1-2.4-2.5s1-3 2.4-3h146c1.7 0 2.8 1 2.8 2.3s-1 2.4-2.5 2.4zm-60 100H26c-1.3 0-2.4-1-2.4-2.5s1-3 2.5-3h78c2 0 3 1 3 2.4s-1 2.4-2.4 2.4zm66 30H19c-1.3 0-2.4-1-2.4-2.5s1-3 2.5-3h151c2 0 3 1 3 2.4s-1 2.4-2.4 2.4z"/><path fill="#64869B" d="M13 70.8h-1c0-15.4-2-29.4-5.6-42l1-.2C11 41 13 55.3 13 70.8zM249.4 73h-1c.5-17.2 2-31.3 4.5-44.3l1 .2c-3 12.3-4 26.3-5 44z"/><path fill="#999" d="M227.8 36.4H29.6c-1.4 0-2.5-1-2.5-2.5s1.7-3 3-3h198c1.5 0 2.6 1 2.6 2.3s-1 2.4-2.5 2.4zm0 13H29.6c-1.4 0-2.5-1-2.5-2.5s1.7-3 3-3h198c1.5 0 2.6 1 2.6 2.3s-1 2.4-2.5 2.4zm0 13H29.6c-1.4 0-2.5-1-2.5-2.5s1.7-3 3-3h198c1.5 0 2.6 1 2.6 2.3s-1 2.4-2.5 2.4zm0 13H29.6c-1.4 0-2.5-1-2.5-2.5s1.7-3 3-3h198c1.5 0 2.6 1 2.6 2.3s-1 2.4-2.5 2.4zm0 14H29.6c-1.4 0-2.5-1-2.5-2.5s1.7-3 3-3h198c1.5 0 2.6 1 2.6 2.3s-1 2.4-2.5 2.4z"/></svg>