<svg xmlns="http://www.w3.org/2000/svg" viewBox="0 0 303 188"><path d="M274.7 159H11c-2.4 9-5 18-8 26.8h283.7c-4.7-8-8.7-17-12-26.8zM268.2 3H12c2.5 9.2 4.7 18 6 26.6h247.3c1-8.8 1.8-17.7 3-26.6zm-3.8 39H20c1 8.3 1.7 17 2 26.3l241.2.3c0-9.2.5-18 1.2-26.6zm-1 39H22c0 7.6-.6 16.7-1.6 26.6h244.2c-.8-8.4-1.2-17.3-1.3-26.6zm2.6 39H19c-1.2 8.2-3 17-5 26.6h257c-2-8.6-3.8-17.5-5-26.6z"/><path fill="#FFF" d="M256.4 84c.2 6 .4 11.4.8 16.6H24c.5-6.3.8-11.8 1-16.6h231.4m3.2 39c.8 5.6 2 11 3 16.6H18.2c1.4-6 2.4-11.6 3.2-16.6h238.4m9.2 39c2.3 6 4.6 11.6 7.2 16.8H8l4.8-16.8H269M257 45c-.3 5.3-.6 11-.7 16.6l-231.5-.3C24.5 55.5 24 50 23.6 45H257m3.6-39l-1.8 16.6H20.3c-1-5.3-2.3-10.8-3.8-16.6h244"/><path fill="#06B600" d="M292.3 127.2l-.3 1-12 11.8c-.2.3-.4.3-1 .3l-1-.3-6.8-7c-.3-.2-.3-.4-.3-1v-1l2-1.7c0-.3 0-.3 1-.3s0 .2 1 .3l4 4 9-9c0-.2 0-.2 1-.2s0 1 1 1l2 2v1z"/><path fill="#EE0003" d="M300.2 172.7c0 .4-.2.6-.4 1l-2 2c0 .2-.5.4-1 .4h-1l-4.4-4-4.3 5s0 1-1 1 0 0-1-.3l-2-2v-1l1-1 5-4.4-4-4.3v-1l.3-1 2-2s.3-.6 1-.6h1l4 4.7 4.5-4.2s.5-.5 1-.5c.4 0 .6 0 1 .3l2 2s.4.6.4 1 0 .7-.3 1l-5 4 4.2 4v1z"/><path fill="#06B600" d="M286.5 86.3l-.3 1L274.4 99c-.3.4-.5.4-1 .4l-1-.3-7-6c-.2 0-.2 0-.2-1l.3-1 1.8-2h1l1 1 4 4 9-9h1l1 .5 2 1.8.2 1z"/><path fill="#EE0003" d="M282.8 58.6c0 .4-.2.6-.4 1l-2 2c0 .2-.5.4-1 .4s-.6-.2-1-.4l-4.4-4.3-4.3 4.3c-.2.2-.6.4-1 .4s-.7-.2-1.2-.4l-2-2s-.3-.5-.3-1 .2-.6.4-1L270 53l-4.4-4.3c-.2-.3-.2-.5-.2-1s.2-.6.4-1l2-2c0-.2.5-.4 1-.4s.6.2 1 .4l4.4 4.3 4.3-4.3c.2-.2.6-.4 1-.4s.7.2 1.2.4l2 2s.3.5.3 1-.2.6-.4 1l-4.3 4.4 4.3 5 .2 1zM288 19c0 .3 0 .5-.3 1l-2 2s-.5.3-1 .3-.6-.2-1-.4l-4.4-5-4.3 5h-1c-.5 0-.7 0-1.2-1l-2-2-.3-1c0-1 .2-1 .4-2l4-4.5-4-4c-1 0-1-.5-1-1V6l2-2 1-.2 1 .2 5 5 4-4.2 1-.3h1l2 2v1c0 .5 0 .7-.5 1l-4 4.5 5 4.8v1z"/><path fill="#555" d="M171.3 16.2H32.6c-.8 0-1.5-.7-1.5-1.5s1-1.5 2-1.5h139c1 0 2 .7 2 1.5s0 1.5-1 1.5z"/><path fill="#7AB7F0" d="M254 18.7h-39.4c1.8-2 2.2-3.2.2-8.8h36c-.2 4 1.6 6 3.3 8z"/><path fill="#555" d="M190.3 55.2H31.6c-.8 0-1.5-.7-1.5-1.5s1-1.5 2-1.5h159c1 0 2 .7 2 1.5s0 1.5-1 1.5z"/><path fill="#7AB7F0" d="M253 57.7h-39.4c1.8-2 2.2-3.2.2-8.8h36c-.2 4 1.6 6 3.3 8z"/><path fill="#555" d="M173.3 94.2H31.6c-.8 0-1.5-.7-1.5-1.5s1-1.5 2-1.5h142c1 0 2 .7 2 1.5s0 1.5-1 1.5z"/><path fill="#7AB7F0" d="M253 96.7h-39.4c1.8-2 2.2-3.2.2-8.8h36c-.2 4 1.6 6 3.3 8z"/><path fill="#555" d="M208.3 133.2H29.6c-.8 0-1.5-.7-1.5-1.5s1-1.5 2-1.5h179c1 0 2 .7 2 1.5s0 1.5-1 1.5z"/><path fill="#7AB7F0" d="M256 135.7h-39.4c1.8-2 2.2-3.2.2-8.8h36c-.2 4 1.6 6 3.3 8z"/><path fill="#555" d="M191.3 173.2H22.6c-.8 0-1.5-.7-1.5-1.5s1-1.5 2-1.5h169c1 0 2 .7 2 1.5s0 1.5-1 1.5z"/><path fill="#7AB7F0" d="M268 175.7h-39.4c1.8-2 2.2-3.2.2-8.8h36c-.2 4 1.6 6 3.3 8z"/></svg>