<svg xmlns="http://www.w3.org/2000/svg" viewBox="0 0 500 500"><defs><linearGradient id="b" x1="243.8" x2="243.8" y1="251.6" y2="273.7" gradientUnits="userSpaceOnUse"><stop offset="0" stop-color="#4E677A"/><stop offset="1" stop-color="#1C252B"/></linearGradient><linearGradient id="c" x1="207.1" x2="207.1" y1="233.1" y2="119.2" gradientUnits="userSpaceOnUse" gradientTransform="matrix(1 0 0 -1 0 500)"><stop offset=".3" stop-color="#A1D2FF"/><stop offset=".7" stop-color="#7AB7F0"/><stop offset="1" stop-color="#A1D2FF"/></linearGradient><linearGradient id="d" x1="-321.1" x2="-321.1" y1="237.8" y2="114.4" gradientUnits="userSpaceOnUse" gradientTransform="rotate(180 -20.913 250)"><stop offset=".3" stop-color="#A1D2FF"/><stop offset=".7" stop-color="#7AB7F0"/><stop offset="1" stop-color="#A1D2FF"/></linearGradient><filter id="a" x="0" y="0"><feGaussianBlur in="SourceGraphic" stdDeviation="1"/></filter></defs><path d="M320 400l-76.2-8.4-76.4 8.5 76.4 14 76.2-14z" opacity=".3" filter="url(#a)"/><path fill="url(#b)" d="M320 260l-76.2-8.4-76.4 8.5 76.4 14 76.2-14z"/><path fill="#698AA3" d="M243.7 384.7c-.3 0-.5-.2-.5-.5V251.6c0-.3.2-.5.5-.5s.5 1 .5 1v133c0 1-.2 1-.5 1z" enable-background="new"/><path fill="#64869B" d="M234 226.7c-.3 0-.6-.2-.6-.4-2.5-17.8-6.6-34.7-12.3-50 0-.4 0-.6 1-.7s1 0 1 .3c6 15 10 32 13 50zm-37-95.4s-.3 0-.4-.2c-11-14-23.7-24-37.8-31h-.2.7c14.2 7 27 18 38 32 .3 1 .2 1 0 1 0 .8-.2 1-.3 1zm56.8 97.3c-.3 0-.5-.3-.5-.6 2.5-18 6.6-34.8 12.3-50.3 0-.3.4-.4.6-.3.3 0 .4.4.3.6-5.7 15.4-9.8 32.2-12.3 50 0 .4-.2.6-.4.6zm37-95.6h-.4c-.2-.2-.3-.5 0-.7 11-14.2 23.8-25 38-32 .2 0 .5 0 .7.2 1 .2 0 .5 0 .7-14 7-27 17.7-38 31.8zm23.8 70.8c-.2 0-.3 0-.4-.2-.2-.2 0-.5 0-.7 12-9 25.8-17 43.2-26h.7c1 0 0 0 0 0-17 8-31 16-43 25zM166 194.3h-.4c-12-11.4-25.8-21-40.8-28.4l-.2-1s.4-1 .7 0c15 7 29 17 41 28 .2 0 .2 0 0 0h-.4z"/><path fill="#F4FB00" d="M130.6 159.8c.4-2.3-.3-4-2-5.7h2c1.7 2 2.4 4 2 6l-2 1z"/><path fill="#F84000" d="M119.8 187.3c2-2.5 2.5-5.2 1.5-8.2l3 1c1 3 .5 6-1.4 8h-4z"/><path fill="#CCC" d="M138.2 171c1.4 2.2 3.4 3.3 6 3.3l-1.2 2.3c-2.5 0-4.5-1.2-6-3.3l1.2-2.3z"/><path fill="#A1D2FF" d="M156 170.3c-2.2-1.2-4.3-1.3-6.5-.2v-2c2.3-1 4.4-1 6.5 1v3zm-14.8 22c.4 2.3 1.7 3.8 3.8 4.7l-1.7 1.5c-2-1-3.3-2.4-3.8-4.6l1.7-2z"/><path fill="#F84000" d="M147.4 197c2.6 1.6 5.2 1.8 8 .6l-.3 3c-2 1-5 1-8-.7l1-3z"/><path fill="#009803" d="M175.7 183c.5 2.7 2 4.6 4.8 5.7l-2.2 1.8c-2.6-1-4.2-3-4.8-5.8l2.2-1.8z"/><path fill="#F4FB00" d="M159 216c-.2 2.4.6 4.2 2.4 5.6l-2 1c-1.8-1.5-2.6-3.3-2.5-5.6l2-1z"/><path fill="#CCC" d="M156.2 222.2c1 2.5 2.6 4 5.2 4.6l-1.7 2c-2.5-.7-4.2-2.2-5.2-4.6l1.7-2z"/><path fill="#000177" d="M171 232c-2.7.6-4.7 2.3-5.7 5l-2-2c1.2-2.8 3-4.4 6-5.2l1.8 2.2z"/><path fill="#F87900" d="M173.3 242c1.6-1.3 2.3-3 2-5l2 .8c0 2-.6 3.7-2 5l-2-.8z"/><path fill="#A1D2FF" d="M179.2 254.8c-2.5-1-4.7-.6-7 1l-.3-2.6c2-1.5 4-1.8 6-1v2.6z"/><path fill="#F87900" d="M223 241.5c-2 2.3-2.6 5-1.7 7.8l-3-.6c-.7-3 0-5.5 1.7-7.8h3z"/><path fill="#A1D2FF" d="M201.5 256.4c-1.2 2.4-1 4.7.3 7h-2.6c-1.3-2.3-1.3-4.6-.3-7h2z"/><path fill="#F4FB00" d="M206.4 266c3 1 6 .5 8.4-1.6l.6 3.2c-2.5 2-5.3 2.5-8.4 1.6l-.6-3.2z"/><path fill="#CCC" d="M356 193.6c2-1.2 3-3 3-5.5l2.2 2c0 3-1.2 4-3.2 6l-2-1z"/><path fill="#F84000" d="M340 171c-2.3 0-4 .8-5.4 2.7l-1-2c1.4-1.8 3.2-2.6 5.4-2.6l1 2z"/><path fill="#000177" d="M334 176c-2.2 2-3 4.6-2.6 7.6l-3-1c-.3-3 .6-5.5 2.8-7.6l3 1z"/><path fill="#009803" d="M342 206c-3 0-5 1.4-6.5 3.8l-1.5-2.4c1.5-2.4 3.7-3.6 6.4-3.8l1.5 2.4z"/><path fill="#A1D2FF" d="M311.7 184.4c-2.2-.6-4 0-5.8 1.5l-1-3c1-2 3-2 6-2v2z"/><path fill="#F87900" d="M301.3 183c-2.4 1.2-3.8 3-4.2 5.6l-2-1.6c1-2.5 2-4.4 5-5.5l2 1.6z"/><path fill="#009803" d="M291.3 201.2c-1.2-2.6-3.3-4.2-6.2-4.5l2-2.3c3 .5 5 2 6 4.5l-1 2z"/><path fill="#A1D2FF" d="M282 205.5c1.7 1.3 3.5 1.6 5.5 1l-.4 2c-2 .6-3 .2-5-1l1-2z"/><path fill="#000177" d="M270.8 214c.4-2.6-.4-4.8-2.4-6.5l2.5-1c1 1.8 2 4 2 6.6l-3 1z"/><path fill="#F4FB00" d="M303 249c-3-.3-5.4.8-7.2 3.2l-1.3-2.7c1.8-2.3 4.2-3.4 7.2-3.3l1.3 2.7z"/><path fill="#A1D2FF" d="M278.4 240.5c-2.6.4-4.4 2-5.4 4.3l-1.6-2c1-2.5 3-4 5.4-4.4l1.6 2z"/><path fill="#F87900" d="M273.5 250c1 3.2 3 5 6.3 6l-2.2 2.3c-3-1-5.2-2.8-6.3-5.8l2.2-2.4z"/><path fill="#A1D2FF" d="M273 268.3c3-1 5-3 5.7-6l2.3 2c-1 3-2.8 5-5.7 6.2l-2.3-2.2z"/><path fill="#F87900" d="M326 102.6c3 1 5.6.5 8-1.5l.7 4c-2.5 2-5.2 3-8.2 2l-.6-3z"/><path fill="#A1D2FF" d="M325 113c2 1 4 1 6 0v2.3c-2 1-4 1-6 0V113zm-22-20c1.6 2.8 4 4.3 7.2 4.4l-1.6 2.7c-3 0-5.5-1-7.2-4l1.6-3z"/><path fill="#009803" d="M311.7 116c-2.5.5-4.2 2-5.2 4.4l-1.7-2c1-2.3 2.7-3.8 5.2-4.4l1.7 2z"/><path fill="#F4FB00" d="M308 132c1.7-1.7 2.2-3.7 1.6-6l2.3.5c0 2.3 0 4.4-2 6.2l-3-.6z"/><path fill="#F84000" d="M286 117c-2.2.8-3.5 2.3-4 4.5l-1.7-1.5c.5-2.2 1.8-3.7 4-4.5l1.6 1.5z"/><path fill="#000177" d="M282.5 124c-1.2 2.7-1 5.4.7 8l-3 .2c-1.6-2.6-1.8-5.2-.7-8l3-.3z"/><path fill="#A1D2FF" d="M301 149.4c-2.7 1-4.3 3-5 5.7l-2-1c.6-2 2.2-4 4.8-5l2.2 2z"/><path fill="#CCC" d="M263.4 142c-2.2.8-3.5 2.2-4 4.4l-1.7-1.6c.6-2 2-3.6 4-4.3l1.7 1.6z"/><path fill="#A1D2FF" d="M254 146.6c-1.6 2.2-1.8 4.5-.8 7l-2.6-.4c-1-2.4-.7-4.7.7-7l2.6.4z"/><path fill="#F84000" d="M254.7 164.4c-2.2-2-4.7-2.5-7.5-1.7l.6-2.8c2.8-1 5.3-1 7.5 1l-.6 3z"/><path fill="#F87900" d="M248 172c2 .6 3.7.2 5.2-1.2l.5 2c-1.6 1.3-3.3 1.7-5.3 1.2l-.5-2z"/><path fill="#A1D2FF" d="M241 188.7c-1-2.4-3-3.7-5.6-4l1.5-2c2 .3 4 1.6 5 3.8l-2 2.2zm44.3 15.3c-2.8 1-4.6 3-5.3 6l-2.2-2c.8-3 2.6-5 5.3-6l3 2zm-26 2c-2.2 1.3-3.3 3.4-3.3 6l-2.3-1.3c0-2.6 1.2-4.6 3.3-6l2.3 1.2z"/><path fill="#F4FB00" d="M258.7 216.7c2.2 2.4 5 3.4 8 3l-1 3c-3.2.4-6-.6-8-3l1-3z"/><path fill="#A1D2FF" d="M263 234c2.4-2 3.6-4.5 3.3-7.7l3 1.3c0 3-1 5.7-3.5 7.7l-3-1.3z"/><path fill="#F84000" d="M255 249.8c3.3-.6 5.7-2.4 7-5.6l2 2.6c-1.3 3-3.6 5-7 5.6l-2-2.6z"/><path fill="#CCC" d="M264.3 263.7c-2.4-2.5-5.4-3.4-8.8-2.7l1-3.4c3.4-.6 6.4.3 8.8 2.7l-1 3.4z"/><path fill="#000177" d="M236.5 275c-.4-3-2-5.3-4.8-6.7l2.6-1.8c2.7 1.4 4.4 3.7 4.8 6.8l-2 1.7z"/><path fill="#F4FB00" d="M161.8 101c0-3.3-1.3-5.7-4-7.4l2.8-1.5c2.6 2 4 5 4 8l-2.8 2z"/><path fill="#F87900" d="M171.8 98.6c.5-2.2 0-4-1.7-5.7l3-1c2 1 2 3 2 5h-2z"/><path fill="#000177" d="M159.8 125.6c2-2.4 2.7-5 2-8.2l3 .7c.8 3 0 6-2 9h-3z"/><path fill="#A1D2FF" d="M179 110.2c1.2 2.2 3 3.4 5.7 3.5l-1.3 2.2c-2.5-1-4.5-2-5.8-4l1.3-2z"/><path fill="#CCC" d="M197.7 111.8c-1.8-1.6-4-2-6.2-1.4l.5-2.3c2.3 0 4.4 0 6.2 2l-.5 3z"/><path fill="#A1D2FF" d="M178.8 132.7c.2 2.3 1.4 4 3.4 5l-2 1.2c-2-2-3-3-3.3-5l1-2z"/><path fill="#F84000" d="M184.6 137.8c2.4 2 5 2.4 8 1.5l-.7 3c-3 .8-6 .4-8-1.5v-3z"/><path fill="#000177" d="M214 126.7c.3 2.8 1.7 5 4.2 6.2l-2.4 1c-2.4-2-3.8-4-4.2-6l2.4-2z"/><path fill="#F87900" d="M192 154.5c-1 2-.8 4 .4 6l-2.3.2c-1-2-1-4 0-6l3-.2z"/><path fill="#A1D2FF" d="M189 164.6c.6 2.6 2.2 4.3 4.6 5l-2 2c-2.3-1-4-2.7-4.5-5.2l2-1.8z"/><path fill="#009803" d="M202.7 176c-3 .3-5 1.8-6.3 4.4l-1.7-2.4c1.4-2.5 3.5-4 6.3-4.4l1.7 2.4z"/><path fill="#A1D2FF" d="M203.8 186c1.8-1 2.7-2.6 2.7-4.7l1.8 1c0 2-1 3.6-2.7 4.8l-1.8-1z"/><path fill="#000177" d="M205.5 196c-2-1.5-4.3-2-6.8-1l.4-2.6c3-.8 5-.4 7 1v2.7z"/><path fill="#CCC" d="M252 191c-2.2 2-3 4.7-2.3 7.6l-3-1c-.4-2.8.3-5.4 2.4-7.5l3 1z"/><path fill="#F84000" d="M229.3 204c-1.4 2-1.5 4.5-.4 6.8h-3c-1-2.5-1-4.8 0-7h2z"/><path fill="#A1D2FF" d="M233.4 214c3 1.2 5.8 1 8.5-1v3.3c-3 1.7-6 2-9 .8l-1-3z"/><path fill="#CCC" d="M243.7 231.2c2.3-2.2 3.2-4.8 2.6-8l3 1c.5 3-.4 5.7-2.6 8l-3-1z"/><path fill="#000177" d="M253.5 236.5c3 .8 5.5 0 7.7-2l.7 3c-3 1.8-5 2.5-8 2l-1-3z"/><path fill="#A1D2FF" d="M237.5 247.8c3.3-1 5.4-3 6.4-6.2l2 2.4c-1 3-3 5.2-7 6.2l-3-2.4z"/><path fill="#009803" d="M248.2 260.7c-2.7-2.3-5.7-3-9-1.8l.6-4c3.3-1 6.4-1 9 2l-.6 3z"/><path fill="#A1D2FF" d="M221.6 274.8c-.7-3-2.5-5.2-5.5-6.2l3-2c3 1 5 3 6 6l-2 2.2z"/><path fill="#A1D2FF" d="M243.8 384.2L309 367c-14.8-34.3-3.7-72 11-107l-76 13.8-76.7-13.8c15.2 36 18.5 83 8 107l68.4 17.2z"/><path d="M243.7 384.7c-.3 0-.5-.2-.5-.5V273.7c0-.3.2-.5.5-.5s.5.2.5.5v110.5c0 .3-.2.5-.5.5z" opacity=".3" enable-background="new"/><path d="M243.8 384.7h-.2l-68.2-17.2s-.3 0-.3-.3v-.4c11-24.2 7-71-8-106.5v-.5l1-.2 76 13.6 77-13.6c1 0 1 0 1 .2v.5c-14 33-26 71.5-11 106.5v.7l-65 17.2zm0-.5zm-67.6-17.5l67.6 17 64.6-17c-14.8-35-3-73 11-106L244 274.3h-.3l-75.5-13.5c14.6 35.3 18 81.4 8 106z"/><path fill="url(#c)" d="M173.3 267s23.7 62.8 6 98.6c9.3-1.7 61.5 15.2 61.5 15.2 0-27.7-1-79.3-1-101.6-17 1.3-53 2-66.5-12.3z"/><path fill="url(#d)" d="M312 267s-23.6 62.8-5.8 98.6c-9.4-1.7-59.8 15.2-59.8 15.2 0-29.7.5-79.2.5-101.5 17 1.3 51 2 65-12.4z"/><path d="M320 260l-75.7-8.4-75.6 8.4h-1l-.2-.3v-.4l.4-.2 76-8 76 9v2h-1z"/></svg>