<svg xmlns="http://www.w3.org/2000/svg" viewBox="0 0 170 170"><path d="M168 19l-20-3V2H32v22L2.4 31.4 32 148.8V168h115.6l.5-5.7"/><path fill="#FFFDFD" d="M159.6 21.2L142 18.7V5H36v20.2L5.2 33 36 154v7h106v-13.3"/><path fill="none" stroke="#BAD4E0" stroke-miterlimit="10" d="M142 145.7H35m107-61H35.3"/><path fill="#64869B" d="M35.6 161l-4-134.7 4.4-1M141.6 161l.4-142.3 3.8.6"/><path fill="#555" d="M135.8 155.5H112c-.7 0-1.4-.7-1.4-1.5s.7-1.5 1.5-1.5h24c1 0 1.8.7 1.8 1.5s-.7 1.5-1.5 1.5zm-19.8-61H62.2c-.8 0-1.5-.6-1.5-1.4s.7-1 1.5-1H116c.7 0 1.4.7 1.4 1.5s-.7 1.6-1.5 1.6z"/><path fill="#999" d="M129.3 108.6h-82c-.8 0-1.5-.7-1.5-1.5s.7-1 1.5-1h82c.8 0 1.5.7 1.5 1.5s-.7 1.6-1.5 1.6zm0 10h-82c-.8 0-1.5-.7-1.5-1.5s.7-1 1.5-1h82c.8 0 1.5.7 1.5 1.5s-.7 1.6-1.5 1.6zm0 10h-82c-.8 0-1.5-.7-1.5-1.5s.7-1 1.5-1h82c.8 0 1.5.7 1.5 1.5s-.7 1.6-1.5 1.6z"/><circle cx="77.8" cy="34.4" r="13.5" fill="#FFE31A"/><linearGradient id="a" x1="87.4" x2="87.4" y1="25.2" y2="70.6" gradientUnits="userSpaceOnUse"><stop offset=".3" stop-color="#E8E8E8"/><stop offset=".3" stop-color="#DBDBDB"/><stop offset="1" stop-color="#00AA3A"/></linearGradient><path fill="url(#a)" d="M41.3 70.6L67.6 34l12 12.3 19.7-21 34.3 44.4"/></svg>