<svg xmlns="http://www.w3.org/2000/svg" viewBox="0 0 183 170"><path d="M99.8 14.7H3v138.6h96.5"/><circle cx="49.6" cy="40.9" r="11.3" fill="#FFE31A"/><path d="M179.8 14.7H83v138.6h96.5"/><path fill="#555" d="M151.4 91.2h-44.7c-.7 0-1.3-.6-1.3-1.3 0-1 .6-1.8 1.3-1.8h44.7c.7 0 1.3.6 1.3 1.3 0 .6-.7 1.2-1.3 1.2z"/><circle cx="119.6" cy="40.9" r="11.3" fill="#FFE31A"/><path d="M153 3H37v166h115.5"/><path fill="#FFFDFD" d="M145 5H39v156h106v-13.3"/><path fill="none" stroke="#BAD4E0" stroke-miterlimit="10" d="M145 145.7H39m106-61H39"/><path fill="#555" d="M138.7 155.5H115c-.8 0-1.5-.7-1.5-1.5s.7-1.5 1.5-1.5h23.7c.8 0 1.5.7 1.5 1.5s-.7 1.5-1.5 1.5zm-20-61H65.3c-.8 0-1.5-.6-1.5-1.4s.7-1 1.5-1H119c.7 0 1.4.7 1.4 1.5s-.7 1.6-1.5 1.6z"/><path fill="#999" d="M132.2 108.6h-82c-.8 0-1.5-.7-1.5-1.5s.7-1 1.5-1h82c.8 0 1.5.7 1.5 1.5s-.7 1.6-1.5 1.6zm0 10h-82c-.8 0-1.5-.7-1.5-1.5s.7-1 1.5-1h82c.8 0 1.5.7 1.5 1.5s-.7 1.6-1.5 1.6zm0 10h-82c-.8 0-1.5-.7-1.5-1.5s.7-1 1.5-1h82c.8 0 1.5.7 1.5 1.5s-.7 1.6-1.5 1.6z"/><circle cx="80.7" cy="34.4" r="13.5" fill="#FFE31A"/><linearGradient id="a" x1="90.4" x2="90.4" y1="-193.2" y2="-238.6" gradientUnits="userSpaceOnUse" gradientTransform="matrix(1 0 0 -1 0 -168)"><stop offset=".3" stop-color="#E8E8E8"/><stop offset=".3" stop-color="#DBDBDB"/><stop offset="1" stop-color="#00AA3A"/></linearGradient><path fill="url(#a)" d="M44.2 70.6L70.5 34l12 12.3 19.7-21 34.3 44.4"/><path d="M153 3H37v166h115.5"/><path fill="#FFFDFD" d="M145 5H39v156h106v-13.3"/><path fill="none" stroke="#BAD4E0" stroke-miterlimit="10" d="M145 145.7H39m106-61H39"/><path fill="#555" d="M138.7 155.5H115c-.8 0-1.5-.7-1.5-1.5s.7-1.5 1.5-1.5h23.7c.8 0 1.5.7 1.5 1.5s-.7 1.5-1.5 1.5zm-20-61H65.3c-.8 0-1.5-.6-1.5-1.4s.7-1 1.5-1H119c.7 0 1.4.7 1.4 1.5s-.7 1.6-1.5 1.6z"/><path fill="#999" d="M132.2 108.6h-82c-.8 0-1.5-.7-1.5-1.5s.7-1 1.5-1h82c.8 0 1.5.7 1.5 1.5s-.7 1.6-1.5 1.6zm0 10h-82c-.8 0-1.5-.7-1.5-1.5s.7-1 1.5-1h82c.8 0 1.5.7 1.5 1.5s-.7 1.6-1.5 1.6zm0 10h-82c-.8 0-1.5-.7-1.5-1.5s.7-1 1.5-1h82c.8 0 1.5.7 1.5 1.5s-.7 1.6-1.5 1.6z"/><circle cx="80.7" cy="34.4" r="13.5" fill="#FFE31A"/><linearGradient id="b" x1="90.4" x2="90.4" y1="-193.2" y2="-238.6" gradientUnits="userSpaceOnUse" gradientTransform="matrix(1 0 0 -1 0 -168)"><stop offset=".3" stop-color="#E8E8E8"/><stop offset=".3" stop-color="#DBDBDB"/><stop offset="1" stop-color="#00AA3A"/></linearGradient><path fill="url(#b)" d="M44.2 70.6L70.5 34l12 12.3 19.7-21 34.3 44.4"/><path fill="#555" d="M98 142H78.2c-.7 0-1.3-.6-1.3-1.3 0-.7 0-1.3 1-1.3h20c.4 0 1 .6 1 1.3 0 .7-.7 1.3-1.3 1.3z"/><path fill="#FFFDFD" d="M173.2 16.4h-27v130.2h27v-11M37.6 16.4h-33v130.2h33v-11"/></svg>