<svg xmlns="http://www.w3.org/2000/svg" viewBox="0 0 261.9 126"><path d="M262 0H0c11.7 42.8 13.8 84.7 8.3 126h245.5c-4.4-44-2-86 8-126z"/><path fill="#FFF" d="M252.6 3c-8.4 36.3-11 75.3-7.3 116H11c4.6-39.2 2-78-7.5-116h249"/><path fill="#999" d="M231.5 21.7H25c-1.3 0-2.5-1-2.5-2.5s1.2-2.5 2.6-2.5h207c1.6 0 2.8 1 2.8 2.5s-1 2.5-2.5 2.5zm0 14.7H27c-1.4 0-2.6-1-2.6-2.5s1.2-3 2.6-3h204.5c1.4 0 2.6 1 2.6 2.2s-1 2.6-2 2.6zm-5.5 27H52c-1 0-2-1-2-2.5s1-3 2-3h174c1.3 0 2.3 1 2.3 2.3s-1 2.4-2.2 2.4zm0 20H52c-1 0-2-1-2-2.5s1-3 2-3h174c1.3 0 2.3 1 2.3 2.3s-1 2.4-2.2 2.4zm0 22H52c-1 0-2-1-2-2.5s1-3 2-3h174c1.3 0 2.3 1 2.3 2.3s-1 2.4-2.2 2.4z"/><path fill="#7AB7F0" d="M36.6 57c-.4 2.7-.4 5.2 0 7.8H30c.2-2.2.2-4.7-.2-7.7h6.8m2.4-2H27.4c1 5 1 9 0 12H39c-.8-4-1-7.2 0-11.3zm-2.4 21c-.4 3-.4 5.7 0 8H30c.2-2 .2-4.4-.2-7.4h6.8m2.4-2H27.4c1 4.6 1 8.6 0 12H39c-.8-4-1-7.7 0-11.8zm-2.4 25c-.4 2.7-.4 5.2 0 7.8H30c.2-2 .2-4.6-.2-7.6h6.8m2.4-2H27.4c1 4.6 1 8.6 0 12H39c-.8-4-1-7.7 0-11.8z"/><path fill="#06B600" d="M42.2 56.4c0 .2 0 .4-.2.6l-7.2 7.2c-.2.2-.3.2-.6.2-.2 0-.4 0-.6-.2L29.4 60c-.2-.2-.2-.3-.2-.6 0-.2 0-.4.2-.6l1-1c.3-.3.4-.3.7-.3l1 .2 2.8 2.5 5.5-5.5c0-.2.3-.2.6-.2 0 0 .3 0 .5.2l1 1 .4.7z"/><path fill="#EE0003" d="M37 104.4v.5l-1 .2-.5.2c-.2 0-.3 0-.5-.3l-2-2-2 2-.5.3c-.2 0-.3 0-.5-.3l-1-1v-1l2-2-2-2 .2-.5 1-1h1l2 2 2-2h1l1 1 .2.5-.2.5-2 2 2 2v.4z"/></svg>