<svg xmlns="http://www.w3.org/2000/svg" viewBox="0 0 264 162"><path d="M261.9 0H0c11.7 54 13.8 106.9 8.3 159h245.5c-4.4-55.4-2-108.4 8.1-159z"/><path fill="#FFF" d="M252.6 3.8c-8.4 45.8-10.9 95-7.3 146.4H11c4.6-49.5 2-98.6-7.5-146.4h249.1"/><path fill="#999" d="M231.5 21.7H25.1c-1.4 0-2.6-1.1-2.6-2.5s1.2-2.5 2.6-2.5h206.4c1.4 0 2.6 1.1 2.6 2.5s-1.2 2.5-2.6 2.5zM231.5 36.4H27c-1.4 0-2.6-1.1-2.6-2.5s1.2-2.5 2.6-2.5h204.5c1.4 0 2.6 1.1 2.6 2.5s-1.2 2.5-2.6 2.5zM206.1 63.4h-144c-1.2 0-2.2-1.1-2.2-2.5s1-2.5 2.2-2.5h144c1.2 0 2.2 1.1 2.2 2.5s-1 2.5-2.2 2.5zM206.1 93.4h-144c-1.2 0-2.2-1.1-2.2-2.5s1-2.5 2.2-2.5h144c1.2 0 2.2 1.1 2.2 2.5s-1 2.5-2.2 2.5zM206.1 125.4h-144c-1.2 0-2.2-1.1-2.2-2.5s1-2.5 2.2-2.5h144c1.2 0 2.2 1.1 2.2 2.5s-1 2.5-2.2 2.5z"/><path fill="#7AB7F0" d="M37.1 55.2c-.5 3.3-.5 6.6 0 9.9h-8.6c.4-2.8.4-6-.1-9.9h8.7m3.1-2.5H25.3c1.2 5.7 1.4 10.8 0 15h14.9c-1-4.9-1.2-9.8 0-15zM37.1 85.5c-.5 3.3-.5 6.6 0 9.9h-8.6c.4-2.8.4-6-.1-9.9h8.7m3.1-2.6H25.3c1.2 5.7 1.4 10.8 0 15h14.9c-1-4.8-1.2-9.7 0-15zM37.1 116.9c-.5 3.3-.5 6.6 0 9.9h-8.6c.4-2.8.4-6-.1-9.9h8.7m3.1-2.5H25.3c1.2 5.7 1.4 10.8 0 15h14.9c-1-4.9-1.2-9.8 0-15z"/><path fill="#06B600" d="M44.3 54.3c0 .3-.1.5-.3.8l-9.3 9.3c-.3.3-.4.3-.8.3-.3 0-.5-.1-.8-.3L27.9 59c-.3-.3-.3-.4-.3-.8 0-.3.1-.5.3-.8l1.4-1.4c.3-.3.4-.3.8-.3s.5.1.8.3l3.2 3.2 7.1-7.1c.3-.3.4-.3.8-.3.3 0 .5.1.8.3l1.4 1.4c0 .2.1.5.1.8z"/><path fill="#EE0003" d="M37.8 123.7c0 .3-.1.4-.3.6l-1.2 1.2c-.1.1-.4.3-.6.3s-.4-.1-.6-.3l-2.6-2.6-2.6 2.6c-.1.1-.4.3-.6.3s-.4-.1-.6-.3l-1.2-1.2c-.1-.1-.3-.4-.3-.6 0-.3.1-.4.3-.6l2.6-2.6-2.6-2.6c-.1-.1-.1-.3-.1-.5 0-.3.1-.4.3-.6l1.2-1.2c.1-.1.4-.3.6-.3s.4.1.6.3l2.6 2.6 2.6-2.6c.1-.1.4-.3.6-.3.3 0 .4.1.6.3l1.2 1.2c.1.1.3.4.3.6 0 .3-.1.4-.3.6l-2.6 2.6 2.6 2.6c-.1.2.1.3.1.5z"/></svg>