<svg xmlns="http://www.w3.org/2000/svg" viewBox="0 0 305 203"><path fill="#FFF" d="M302 166H40v-.6c-4-5-9.4-8.4-16.3-8.4C12 157 3 166.4 3 178s9.6 21.7 21.2 21.7c7.3 0 14-3.8 17.7-8.8h260v-25z"/><path d="M23.7 157C12 157 3 166.4 3 178s9.6 21.7 21.2 21.7c7.3 0 14-3.8 17.7-8.8h260v-25H40v-1c-4-5-9.4-9-16.3-9z"/><path fill="#FFF" d="M22 160c6 0 10 3.5 12.3 6.4 1 1.4 2.5 2.6 4.2 2.6H295v15H39.8c-1.6 0-3 .5-4 1.7-2.6 3.4-7.5 7-13.6 7-8.7 0-16-7.7-16-16.6 0-8 7-16 15.8-16m280-46H40c-4-5-9.4-8-16.3-8C12 105 3 115 3 126s9.6 21.7 21.2 21.7c7.3 0 14-3.8 17.7-8.8h260v-25z"/><path d="M23.7 105C12 105 3 114.4 3 126s9.6 21.7 21.2 21.7c7.3 0 14-3.8 17.7-8.8h260v-25H40v-1c-4-5-9.4-9-16.3-9z"/><path fill="#FFF" d="M22 108c6 0 10 3.5 12.3 6.4 1 1.4 2.5 2.6 4.2 2.6H295v15H39.8c-1.6 0-3 .5-4 1.7-2.6 3.4-7.5 7-13.6 7-8.7 0-16-7.7-16-16.6 0-8 7-16 15.8-16m280-44H40c-4-5-9.4-8-16.3-8C12 55 3 64.7 3 76s9.6 21.7 21.2 21.7c7.3 0 14-3.8 17.7-8.8h260V64z"/><path d="M23.7 55C12 55 3 64.4 3 76s9.6 21.7 21.2 21.7c7.3 0 14-3.8 17.7-8.8h260V64H40v-.6c-4-5-9.4-8.4-16.3-8.4z"/><path fill="#FFF" d="M22 58c6 0 10 3.5 12.3 6.4 1 1.4 2.5 2.6 4.2 2.6H295v15H39.8c-1.6 0-3 .5-4 1.7-2.6 3.4-7.5 7-13.6 7-8.7 0-16-7.7-16-16.6 0-8 7-16 15.8-16m280-46H40c-4-5-9.4-9-16.3-9C12 3 3 13 3 24s9.6 21.7 21.2 21.7c7.3 0 14-3.8 17.7-8.8h260V12z"/><path d="M23.7 3C12 3 3 12.4 3 24s9.6 21.7 21.2 21.7c7.3 0 14-3.8 17.7-8.8h260V12H40v-.6C36 6.4 30.6 3 23.7 3z"/><path fill="#FFF" d="M22 6c6 0 10 3.5 12.3 6.4 1 1.4 2.5 2.6 4.2 2.6H295v15H39.8c-1.6 0-3 .5-4 1.7-2.6 3.4-7.5 7-13.6 7-8.7 0-16-7.7-16-16.6C6 14 13 6 22 6"/><circle cx="24" cy="23.2" r="13" fill="#A1D2FF"/><path d="M22.4 15.5l-3.6 2-.5-2.2 4.4-2.4H25v20h-2.6V15z"/><circle cx="23" cy="75.2" r="13" fill="#A1D2FF"/><circle cx="23" cy="126.2" r="13" fill="#A1D2FF"/><circle cx="23" cy="178.2" r="13" fill="#A1D2FF"/><path d="M15.5 84v-1.7l2-2c5.2-5 7.6-7.6 7.6-10.6 0-2-1-4-4-4-1 0-3 1-4 1.8l-1-2c2-1 4-2 6-2 5 0 6 3 6 6C28 73 25 76 21 80l-1.6 1.5h9V84h-13zm.7 48c.8.4 2.6 1.2 4.5 1.2 3.5 0 4.6-2.2 4.5-4 0-2.7-2.6-4-5.2-4h-1.5v-2H20c2 0 4.5-1 4.5-3.3 0-2-1-3-3.5-3-1.6 0-3.2 0-4 1l-.7-2c1-1 3-2 5.3-2 4 0 5.8 2 5.8 5 0 2-1.2 4-3.7 4 2.5.6 4.5 2.5 4.5 5.3 0 3.3-2.5 6-7.3 6-3 0-5-.6-6-1.3v-2zm6.8 56v-5.5h-9.4v-1.8l9-12.8h3v12h2.7v2h-2.8v5H23zm0-7.6v-10l-1.8 3-5 7H23z"/></svg>