<svg xmlns="http://www.w3.org/2000/svg" viewBox="0 0 170 170"><path d="M168 19l-20-3V2H32v22L2.4 31.4 32 148.8V168h115.6l.5-5.7"/><path fill="#FFFDFD" d="M159.6 21.2L142 18.7V5H36v20.2L5.2 33 36 154v7h106v-13.3"/><path fill="none" stroke="#BAD4E0" stroke-miterlimit="10" d="M142 145.7H35m107-61H35.3"/><path fill="#64869B" d="M35.6 161l-4-134.7 4.4-1M141.6 161l.4-142.3 3.8.6"/><path fill="#999" d="M129.6 95.6h-82c-.8 0-1.5-.7-1.5-1.5s1-1 2-1h82c1 0 1.8 1 1.8 1.8S131 96 130 96zm0 10h-82c-.8 0-1.5-.7-1.5-1.5s1-1 2-1h82c1 0 1.7 1 1.7 1.7s-.6 1.6-1.4 1.6z"/><path fill="#06B600" d="M137.6 150.3c0 .2 0 .4-.2.6l-7.2 7H129l-4.2-4-.2-1s0-.6.2-.8l1-1c.3-.3.4-.3.7-.3l.6.2 3 2.5 5.7-5.4c.3-.2.4-.2.7-.2 0 0 .4 0 .6.3l1 1 .2.7z"/><path d="M129.6 129.2H49l.4-1.3c1-4 1-8 0-11.8L49 115h80.7l-1 1.6c-1.7 3-1.7 6.5 0 10.7l1 1.4z"/><path fill="#E6E6E6" d="M51.6 127.2h65c-1.4-3.5-1.4-6.7-.2-9.7H51.6c.7 3.2.7 6.5 0 9.7z"/><path d="M85 56v-2c-.4-4 1-8.3 4.5-12.7 3.3-4 5-6.7 5-10 0-3.7-2.2-6.2-7-6.3-2.5 0-5.5 1-7.3 2.3l-1.8-4.6c2.4-1.8 6.6-3 10.5-3 8 0 12 5.3 12 11 0 5-3 8.5-6.8 12.6C91 47 90 50.3 90 54v2h-5zm-1.5 10c0-2.6 1.8-4.5 4.4-4.5 2 0 4 2 4 4.6 0 3-2 5-4.8 5-2.5 0-4.3-2-4.3-4.3z"/></svg>