<svg xmlns="http://www.w3.org/2000/svg" viewBox="0 0 264 164"><path d="M262 161c-13.1-19-14.3-62-3.7-130h-90.1c.8-11-.1-21.7 2.6-28.1L73 3.2v.1L3 3.4C16 36.5 15.4 111 3.6 161H262z"/><linearGradient id="a" gradientUnits="userSpaceOnUse" x1="62.908" y1="-22.201" x2="187.699" y2="193.943"><stop offset="0" stop-color="#FFF"/><stop offset="1" stop-color="#EAEAEA"/></linearGradient><path fill="url(#a)" d="M74.9 8.2c1.7.1.4 25.3 3.5 27.8h174c-8.7 58.8-8.4 98.3 1.1 120H9.8c4.9-23.6 7.8-52.3 7.8-80.1 0-27.5-2.7-51.1-7.6-67.5l64.9-.2"/><linearGradient id="b" gradientUnits="userSpaceOnUse" x1="121.979" y1="8.378" x2="121.979" y2="30.989"><stop offset="0" stop-color="#A1D2FF"/><stop offset="1" stop-color="#7AB7F0"/></linearGradient><path fill="url(#b)" d="M164.3 8.4c-.6 3.9-.7 8.2-.8 12.7-.1 3.3-.2 6.6-.4 9.9H82.3c-.3-1.8-.4-4-.6-6.3-.3-4.7-.7-10.3-2.1-16.1l84.7-.2"/><path fill="#555" d="M24.5 22.3c-1.4 0-2.5-1.1-2.5-2.5s1.1-2.5 2.5-2.5l37.5-.2c1.4 0 2.5 1.1 2.5 2.5s-1.1 2.5-2.5 2.5l-37.5.2c.1 0 0 0 0 0zM103.2 22.3c-1.4 0-2.5-1.1-2.5-2.5s1.1-2.5 2.5-2.5l37.5-.2c1.4 0 2.5 1.1 2.5 2.5s-1.1 2.5-2.5 2.5l-37.5.2z"/><path fill="#999" d="M230.8 60.4H32.5c-1.4 0-2.5-1.1-2.5-2.5s1.1-2.5 2.5-2.5h198.2c1.4 0 2.5 1.1 2.5 2.5s-1 2.5-2.4 2.5zM230.8 76.4H32.5c-1.4 0-2.5-1.1-2.5-2.5s1.1-2.5 2.5-2.5h198.2c1.4 0 2.5 1.1 2.5 2.5s-1 2.5-2.4 2.5zM230.8 94.4H32.5c-1.4 0-2.5-1.1-2.5-2.5s1.1-2.5 2.5-2.5h198.2c1.4 0 2.5 1.1 2.5 2.5s-1 2.5-2.4 2.5zM230.8 112.4H32.5c-1.4 0-2.5-1.1-2.5-2.5s1.1-2.5 2.5-2.5h198.2c1.4 0 2.5 1.1 2.5 2.5s-1 2.5-2.4 2.5zM230.8 131.4H32.5c-1.4 0-2.5-1.1-2.5-2.5s1.1-2.5 2.5-2.5h198.2c1.4 0 2.5 1.1 2.5 2.5s-1 2.5-2.4 2.5z"/></svg>