<svg xmlns="http://www.w3.org/2000/svg" viewBox="0 0 265 187"><path d="M212.3 3H9.1C26.2 61.8 19.2 122.3 3 184.1h220c-37.5-19-41.7-86.6-10.7-181.1z"/><path fill="#FFF" d="M199.8 6c-14 44.2-20.4 83.6-18.5 114 1.5 25.8 8.7 44.9 21.4 57.1H9c8.1-32 12.7-60.4 14.2-86.5 1.6-30.4-.9-58.1-7.9-84.6h184.5"/><path fill="#999" d="M183.2 21.1H27.8c-2 0-3.6-1.1-3.6-2.5s1.7-2.5 3.6-2.5h155.4c2 0 3.6 1.1 3.6 2.5s-1.6 2.5-3.6 2.5zM176.4 41.1H28.1c-2.1 0-3.9-1.1-3.9-2.5s1.8-2.5 3.9-2.5h148.3c2.1 0 3.9 1.1 3.9 2.5s-1.7 2.5-3.9 2.5zM171.6 63.1h-144c-1.8 0-3.4-1.1-3.4-2.5s1.5-2.5 3.4-2.5h144c1.8 0 3.4 1.1 3.4 2.5s-1.5 2.5-3.4 2.5zM60.7 83.1H28.2c-.4 0-.8-1.1-.8-2.5s.3-2.5.8-2.5h32.5c.4 0 .8 1.1.8 2.5s-.3 2.5-.8 2.5z"/><path fill="#555" d="M68.3 90.3c-.8-7.7-.8-13.6 0-18.4.7-.1 1.2 0 1.4.2l.6-.5c-.6-.7-2.2-.5-3.9-.2l-.5.1.1.8.5-.1c.3 0 .7-.1 1-.1-2.2 4.9-2.2 10.7 0 18.3l-1.5-.3-.2.8c.8.2 1.6.4 2.5.4.6 0 1.3-.1 1.9-.4l-.3-.9c-.5.2-1.1.3-1.6.3z"/><path fill="#7AB7F0" d="M121.7 139c-5 0-9-2.6-9-5.9 0-3.3 4-5.9 9-5.9s9 2.6 9 5.9c0 3.3-4 5.9-9 5.9z"/><path fill="#FFF" d="M122 127.4c-4 0-7.4 2-7.4 4.4s3.4 4.4 7.4 4.4 7.4-2 7.4-4.4-3.4-4.4-7.4-4.4z"/><path fill="#7AB7F0" d="M136.9 127.7c-7.3 0-13.2-3.8-13.2-8.5s5.9-8.5 13.2-8.5c7.3 0 13.2 3.8 13.2 8.5.1 4.7-5.9 8.5-13.2 8.5z"/><path fill="#FFF" d="M136.8 111.3c-6.4 0-11.5 3.1-11.5 7 0 3.8 5.2 7 11.5 7s11.5-3.1 11.5-7c.1-3.9-5.1-7-11.5-7z"/><path fill="#7AB7F0" d="M155.2 111.2c-9.8 0-17.7-5.1-17.7-11.3 0-6.2 7.9-11.3 17.7-11.3s17.7 5.1 17.7 11.3c0 6.2-7.9 11.3-17.7 11.3z"/><path fill="#FFF" d="M154.6 89.7c-8.8 0-15.9 4.3-15.9 9.7 0 5.3 7.1 9.7 15.9 9.7s15.9-4.3 15.9-9.7c0-5.4-7.1-9.7-15.9-9.7z"/><path fill="#7AB7F0" d="M207.8 98.6c-30.4 0-55.1-15.6-55.1-34.7s24.7-34.7 55.1-34.7c30.4 0 55.1 15.6 55.1 34.7s-24.6 34.7-55.1 34.7z"/><path fill="#FFF" d="M205.9 31.9c-28.9 0-52.3 14.6-52.3 32.5s23.5 32.5 52.3 32.5c28.9 0 52.4-14.6 52.4-32.5-.1-17.9-23.6-32.5-52.4-32.5z"/><path fill="#555" d="M181.6 71.4l-.1-1.4c-.3-2.9.7-6.1 3.4-9.4 2.4-2.9 3.8-5 3.8-7.4 0-2.8-1.7-4.6-5.2-4.7-2 0-4.1.7-5.5 1.7l-1.3-3.4c1.8-1.3 4.9-2.2 7.8-2.2 6.2 0 9.1 3.9 9.1 8 0 3.7-2.1 6.4-4.7 9.5-2.4 2.8-3.3 5.2-3.1 8l.1 1.4h-4.3zm-1.2 7.7c0-2 1.4-3.4 3.3-3.4s3.2 1.4 3.2 3.4c0 1.9-1.3 3.4-3.3 3.4-1.9-.1-3.2-1.5-3.2-3.4zM203.6 71.4l-.1-1.4c-.3-2.9.7-6.1 3.4-9.4 2.4-2.9 3.8-5 3.8-7.4 0-2.8-1.7-4.6-5.2-4.7-2 0-4.1.7-5.5 1.7l-1.3-3.4c1.8-1.3 4.9-2.2 7.8-2.2 6.2 0 9.1 3.9 9.1 8 0 3.7-2.1 6.4-4.7 9.5-2.4 2.8-3.3 5.2-3.1 8l.1 1.4h-4.3zm-1.2 7.7c0-2 1.4-3.4 3.3-3.4s3.2 1.4 3.2 3.4c0 1.9-1.3 3.4-3.3 3.4-1.9-.1-3.2-1.5-3.2-3.4zM225.7 71.4l-.1-1.4c-.3-2.9.7-6.1 3.4-9.4 2.4-2.9 3.8-5 3.8-7.4 0-2.8-1.7-4.6-5.2-4.7-2 0-4.1.7-5.5 1.7l-1.3-3.4c1.8-1.3 4.9-2.2 7.8-2.2 6.2 0 9.1 3.9 9.1 8 0 3.7-2.1 6.4-4.7 9.5-2.4 2.8-3.3 5.2-3.1 8l.1 1.4h-4.3zm-1.2 7.7c0-2 1.4-3.4 3.3-3.4s3.2 1.4 3.2 3.4c0 1.9-1.2 3.4-3.3 3.4-1.9-.1-3.2-1.5-3.2-3.4z"/></svg>