<svg xmlns="http://www.w3.org/2000/svg" viewBox="0 0 195 187"><path d="M139.5 3H7c11 58.8 6.6 119.3-4 181h143.5c-24.5-19-27.2-86.5-7-181z"/><path fill="#FFF" d="M131.3 6c-9 44.2-13.3 83.6-12 114 1 25.8 5.6 45 13.8 57H7c5.2-32 8.2-60.3 9-86.4 1.2-30.4-.5-58-5-84.6h120.3"/><path fill="#999" d="M115.6 21h-94c-1.2 0-2.2-1-2.2-2.4s1-2.5 2.2-2.5h94c1.2 0 2.2 2 2.2 3s-1 3-2.2 3zm-11 20h-83c-1.2 0-2.2-1-2.2-2.4s1-2.5 2.2-2.5h83c1.2 0 2.2 2 2.2 3s-1 3-2.2 3zm11 22h-94c-1.2 0-2.2-1-2.2-2.4s1-2.5 2.2-2.5h94c1.2 0 2.2 2 2.2 3s-1 3-2.2 3zm-8 20h-86c-1 0-2-1-2-2.4s1-2.5 2-2.5h86.2c1 0 2 2 2 3s-1 3-2 3zm-27 20h-60c-.6 0-1.2-1-1.2-2.4S20 98 20.8 98h60c.7 0 1.3 1.2 1.3 2.6s0 2.5-1 2.5zm33.4 20H21.6c-1.2 0-2.2-1-2.2-2.4s1-2.5 2.2-2.5H114c1.2 0 2.2 2 2.2 3s-1 3-2.2 3zm-61.3 20H20.2c-.4 0-.8-1-.8-2.4s.3-2.5.8-2.5h32.5c.4 0 .8 2 .8 3s-.3 3-.8 3z"/><path fill="#555" d="M58.4 147.5c-.6-5.4-.6-9.5 0-12.8h1l.4-.3c-.4-.5-1.5-.3-2.7 0v.5l1-1h1c-1 3-1 7 0 12h-1 2s1 0 2-1v-1h-1z"/><path fill="#7AB7F0" d="M51.7 133c-5 0-9-2.6-9-6 0-3.2 4-5.8 9-5.8s9 2.6 9 6c0 3.2-4 5.8-9 5.8z"/><path fill="#FFF" d="M52 121.4c-4 0-7.4 2-7.4 4.4 0 2.4 3.4 4.4 7.4 4.4s7.4-2 7.4-4.4c0-2.4-3.4-4.4-7.4-4.4z"/><path fill="#7AB7F0" d="M67 121.7c-7.4 0-13.3-3.8-13.3-8.5s6-8.5 13.2-8.5 13 3.8 13 8.5-6 8.5-13 8.5z"/><path fill="#FFF" d="M66.8 105.3c-6.4 0-11.5 3-11.5 7 0 3.8 5.2 7 11.5 7 6.4 0 11.5-3 11.5-7s-5-7-11.5-7z"/><path fill="#7AB7F0" d="M85.2 105.2c-9.8 0-17.7-5-17.7-11.3 0-7 8-12 17.7-12S103 87 103 94c0 6-8 11.2-17.8 11.2z"/><path fill="#FFF" d="M84.6 83.7c-8.8 0-16 4.3-16 9.7 0 5.3 7.2 9.7 16 9.7s16-4 16-9-7.2-9-16-9z"/><path fill="#7AB7F0" d="M137.8 92.6c-30.4 0-55-15.6-55-34.7s24.6-35 55-35 55 15 55 34-24.5 34-55 34z"/><path fill="#FFF" d="M136 26c-29 0-52.4 14.5-52.4 32.4C83.6 76.4 107 91 136 91c28.8 0 52.3-14.7 52.3-32.6 0-18-23.6-32.5-52.4-32.5z"/><path fill="#555" d="M111.6 65.4V64c-.4-3 .6-6 3.3-9.4 2-3 3-5 3-7.4 0-2.8-2-4.6-5-4.7-2 0-4 .7-6 1.7l-2-3.4c2-1.3 5-2.2 8-2.2 6 0 9 4 9 8 0 3.7-2 6.4-5 9.5-3 3-4 6-3 8v2h-4zm-1.2 7.7c0-2 1.4-3 3.3-3s3.3 1 3.3 3-1.4 4-3.4 4-3.2-1-3.2-3zm23.2-7v-2c-.4-3 .6-6 3.3-9 2-3 3-5 3-7 0-3-2-4-5-4-2 0-4 1-6 2l-1-3c2-1 5-2 8-2 6 0 9 4 9 8s-2 7-5 10-4 6-3 8v2h-4zm-1.2 8c0-2 1.4-3 3.3-3 2 0 3.2 2 3.2 4s-2 4-4 4-3-1-3-3zm23.3-7v-2c-.4-3 .6-6 3.3-9 2.4-3 3.8-5 3.8-7 0-3-1.7-4-5.2-4-2 0-4 1-5.5 2l-1-3.4c2-1.2 5-2 8-2 6 0 9 4 9 8 0 3.6-2 6.3-4 9.4-2 3-3 6-3 8v2h-5zm-1.2 8c0-2 1.4-3 3.3-3s3.2 1 3.2 3-1.2 4-3.3 4c-2 0-3.2-1-3.2-3z"/></svg>